<svg width="231" height="300" viewBox="0 0 231 300" fill="none" xmlns="http://www.w3.org/2000/svg">
<g clip-path="url(#clip0_34_58)">
<path d="M118.098 0.835768L115.502 0L112.906 0.835768L7.3543 34.7589L0 37.1216L1.67801 44.6526C1.7549 45.0005 9.47103 80.1253 9.47103 116.081C9.47103 138.9 8.02369 158.791 6.8613 174.775C6.14215 184.687 5.57226 192.516 5.57226 198.235C5.57226 212.466 6.92914 229.425 23.1303 250.635C33.7049 264.487 52.9907 276.617 78.8936 285.715C81.3405 286.574 84.303 287.527 87.442 288.534C95.7144 291.195 106.013 294.507 111.246 297.533L115.498 299.995L119.749 297.533C124.982 294.502 135.281 291.191 143.558 288.534C146.697 287.527 149.659 286.574 152.106 285.715C178.009 276.612 197.295 264.482 207.87 250.635C224.071 229.421 225.428 212.466 225.428 198.235C225.428 192.52 224.858 184.687 224.139 174.775C222.976 158.791 221.529 138.905 221.529 116.081C221.529 80.1298 229.245 45.005 229.322 44.6526L230.995 37.1216L223.646 34.7589L118.098 0.835768Z" fill="#2A0A49"/>
<path d="M79.4364 237.385C79.4364 237.385 64.7052 222.454 63.9453 205.572C63.9453 205.572 72.9369 223.534 85.289 231.11C97.6412 238.686 113.241 245.395 120.392 256.648C120.392 256.648 122.572 244.338 86.3746 208.82C61.8919 184.8 62.9729 139.781 62.9729 139.781L50.6886 198.804C48.4226 209.602 49.8563 220.191 79.4409 237.385H79.4364ZM182.994 207.916C182.994 207.916 178.973 205.617 173.599 197.44C173.599 197.44 173.025 227.921 134.906 244.451C134.906 244.451 164.273 206.959 167.751 137.689L182.994 207.916ZM170.759 95.4763C170.759 79.3483 160.614 66.2696 148.095 66.2696C144.806 66.2696 141.681 67.1822 138.863 68.804L115.502 43.347L92.1368 68.804C89.3145 67.1777 86.1936 66.2696 82.9009 66.2696C70.386 66.2696 60.2365 79.3437 60.2365 95.4763C60.2365 99.9669 61.0235 104.218 62.4301 108.022L60.2365 110.263V127.66L69.0426 118.58C72.8736 122.402 77.6769 124.683 82.9009 124.683C90.5266 124.683 97.2703 119.822 101.377 112.377L106.877 118.372L115.498 127.769L124.177 118.313L129.618 112.386C133.725 119.827 140.469 124.688 148.095 124.688C153.314 124.688 158.122 122.406 161.953 118.584L170.759 127.665V110.267L168.565 108.026C169.972 104.227 170.759 99.9714 170.759 95.4808V95.4763ZM82.9009 111.451C80.9923 111.451 79.1695 110.863 77.5367 109.824L88.2516 98.7742L80.1419 89.9467L70.879 99.3976C70.6212 98.1372 70.4809 96.8226 70.4809 95.4763C70.4809 86.816 76.1663 79.5019 82.9009 79.5019C89.6356 79.5019 95.3209 86.816 95.3209 95.4763C95.3209 104.137 89.6356 111.451 82.9009 111.451ZM115.502 104.9C109.885 100.324 106.298 93.3621 106.298 85.5555C106.298 77.749 109.885 70.7873 115.502 66.2109C121.12 70.7873 124.706 77.749 124.706 85.5555C124.706 93.3621 121.12 100.324 115.502 104.9ZM148.099 111.451C141.369 111.451 135.679 104.137 135.679 95.4763C135.679 86.816 141.364 79.5019 148.099 79.5019C154.834 79.5019 160.519 86.816 160.519 95.4763C160.519 96.8226 160.379 98.1372 160.121 99.3976L150.858 89.9467L142.748 98.7742L153.463 109.824C151.831 110.863 150.003 111.451 148.099 111.451ZM160.08 63.1253L170.764 51.4833V73.3398C167.923 68.9847 164.269 65.461 160.08 63.1253ZM131.215 51.0948C131.934 51.0315 132.658 50.9909 133.395 50.9909C141.482 50.9909 148.52 54.7496 152.188 60.2973C150.854 60.0669 149.492 59.9404 148.104 59.9404C145.489 59.9404 142.938 60.356 140.464 61.1737L131.215 51.0948ZM60.241 73.3398V51.4833L70.9242 63.1253C66.736 65.461 63.0814 68.9847 60.241 73.3398ZM78.8212 60.2973C82.4893 54.7496 89.527 50.9909 97.6141 50.9909C98.3513 50.9909 99.0795 51.0361 99.7941 51.0948L90.5447 61.1737C88.0707 60.3515 85.5152 59.9358 82.9055 59.9358C81.5169 59.9358 80.1555 60.0623 78.8212 60.2927V60.2973ZM134.603 143.016L141.161 141.855L143.947 143.567L141.265 145.451L134.869 145.948L132.251 145.252L134.603 143.011V143.016ZM139.677 173.252L152.948 153.095L153.934 144.714C141.184 151.342 131.011 149.968 128.492 148.961C126.109 148.003 125.263 148.288 125.186 148.31C125.421 147.967 127.47 142.582 127.47 142.483L120.355 144.398C120.355 144.398 123.648 137.748 124.485 136.126C124.485 136.126 130.984 134.568 132.373 134.238C133.761 133.908 135.335 132.801 135.335 132.801L142.495 127.723C136.855 127.452 128.926 127.294 123.666 127.208L115.529 136.253L107.393 127.208C97.4919 127.38 88.7355 127.723 88.7355 127.723L95.8953 132.801C95.8953 132.801 97.4693 133.904 98.8579 134.238C100.246 134.568 106.768 136.018 106.768 136.018C107.542 137.048 112.639 143.603 112.639 143.603C113.526 144.534 113.82 145.934 113.82 147.149V161.728L113.77 169.028C114.213 169.309 114.679 169.358 114.914 169.358C115.837 169.358 118.994 167.172 118.994 167.172C118.994 167.172 121.966 168.866 122.373 169.087C122.766 169.322 122.938 169.516 124.091 168.83C125.787 167.849 125.982 166.422 125.982 166.422L133.39 173.7L123.874 172.268C123.838 172.268 123.802 172.268 123.77 172.272L115.127 175.936L106.882 171.974C101.54 175.263 93.6881 182.749 91.7116 185.301C90.2869 187.153 89.7351 188.554 89.7351 190.898C89.7351 193.243 90.4497 194.91 92.1322 196.496C93.5841 197.869 95.6194 199.721 98.2246 201.922C103.951 206.783 111.884 212.755 115.941 212.755C119.998 212.755 127.633 208.639 133.409 202.423C139.085 196.315 142.993 191.734 144.603 189.286C146.023 187.126 146.313 185.36 146.398 184.108C146.462 183.011 147.077 173.528 147.217 171.355L139.682 173.266L139.677 173.252ZM129.686 188.346C129.686 188.346 124.232 185.658 115.733 187.352C112.282 186.665 109.333 186.702 107.013 186.986L107.026 187C105.751 188.007 106.533 190.13 108.98 191.725C111.436 193.306 119.152 193.848 125.466 192.068C125.466 192.068 121.794 197.024 116.267 197.024C108.65 197.024 99.6222 189.222 99.9027 184.754H99.8981L110.034 180.607L115.647 181.981L121.26 180.607L131.12 184.913H131.124C131.124 184.913 131.061 187.185 129.686 188.35V188.346ZM77.392 139.533L83.2266 130.353L90.9156 136.596C90.9156 136.596 87.7721 136.411 83.9638 138.362C80.1419 140.314 77.392 139.528 77.392 139.528V139.533ZM140.107 136.601L147.796 130.357L153.631 139.537C153.631 139.537 150.881 140.323 147.059 138.372C143.251 136.42 140.107 136.605 140.107 136.605V136.601ZM94.1992 166.395C92.2318 165.988 88.1792 164.47 88.1792 164.47L77.0483 153.352L76.7633 144.714C89.5135 151.342 99.6856 149.968 102.205 148.961L105.253 154.766L98.9528 163.088C96.2481 166.449 95.9451 166.77 94.1992 166.399V166.395ZM89.8572 141.855L96.4155 143.016L98.7674 145.256L96.1486 145.952L89.7532 145.455L87.0711 143.571L89.8572 141.859V141.855Z" fill="#00CCBD"/>
</g>
<defs>
<clipPath id="clip0_34_58">
<rect width="231" height="300" fill="white"/>
</clipPath>
</defs>
</svg>
